<?xml version="1.0" standalone="no"?>
<!DOCTYPE svg PUBLIC "-//W3C//DTD SVG 20010904//EN"
 "http://www.w3.org/TR/2001/REC-SVG-20010904/DTD/svg10.dtd">
<svg version="1.0" xmlns="http://www.w3.org/2000/svg"
 width="256.000000pt" height="256.000000pt" viewBox="0 0 256.000000 256.000000"
 preserveAspectRatio="xMidYMid meet">
<metadata>
Created by potrace 1.14, written by Peter Selinger 2001-2017
</metadata>
<g transform="translate(0.000000,256.000000) scale(0.100000,-0.100000)"
fill="#000000" stroke="none">
<path d="M753 1402 c-8 -5 1 -8 22 -8 21 0 30 3 22 8 -6 4 -16 8 -22 8 -5 0
-16 -4 -22 -8z"/>
<path d="M1799 1399 c14 -5 30 -13 36 -17 6 -4 2 1 -8 11 -11 9 -27 17 -36 16
-10 0 -7 -4 8 -10z"/>
<path d="M2059 1399 c14 -5 30 -13 36 -17 6 -4 2 1 -8 11 -11 9 -27 17 -36 16
-10 0 -7 -4 8 -10z"/>
<path d="M452 1322 c-2 -75 0 -83 16 -80 10 2 18 14 20 31 3 22 8 27 31 27 34
0 51 17 51 50 0 30 -17 50 -39 49 -10 0 -7 -4 7 -10 19 -7 23 -15 20 -41 -3
-30 -6 -33 -40 -36 -35 -3 -38 -6 -38 -33 0 -16 -4 -29 -10 -29 -5 0 -11 35
-13 78 l-3 77 -2 -83z"/>
<path d="M584 1323 l1 -78 55 0 c42 0 55 3 55 15 0 10 -12 16 -37 18 -51 4
-53 32 -3 32 24 0 35 5 35 15 0 10 -11 15 -35 15 -24 0 -35 5 -35 15 0 10 11
15 35 15 27 0 35 4 34 18 0 10 -3 12 -6 5 -2 -7 -20 -13 -39 -13 -29 0 -34 -3
-34 -24 0 -21 5 -25 38 -29 l37 -4 -37 -1 c-33 -2 -38 -5 -38 -27 0 -22 4 -25
40 -25 22 0 40 -4 40 -10 0 -5 -22 -10 -50 -10 l-49 0 -4 75 -3 75 0 -77z"/>
<path d="M862 1322 c-2 -75 0 -83 16 -80 10 2 18 14 20 31 3 22 8 27 31 27 27
0 51 16 51 34 0 5 -6 2 -12 -6 -7 -9 -26 -18 -43 -20 -24 -2 -31 -8 -33 -30
-7 -56 -21 -26 -25 50 l-3 77 -2 -83z"/>
<path d="M948 1390 c12 -5 22 -15 22 -21 0 -7 3 -9 6 -6 10 10 -16 37 -35 36
-11 0 -9 -3 7 -9z"/>
<path d="M994 1323 l1 -78 53 -3 c47 -3 52 -1 52 17 0 17 -6 21 -35 21 l-34 0
-4 63 -3 62 -2 -67 -2 -68 35 0 c19 0 35 -4 35 -10 0 -5 -20 -10 -45 -10 l-44
0 -4 75 -3 75 0 -77z"/>
<path d="M1114 1323 l1 -78 51 -3 c34 -2 56 2 65 11 8 8 21 17 29 20 9 4 5 6
-10 6 -73 -3 -100 2 -100 16 0 10 11 15 35 15 24 0 35 5 35 15 0 10 -11 15
-35 15 -24 0 -35 5 -35 15 0 10 11 15 35 15 27 0 35 4 34 18 0 10 -3 12 -6 5
-2 -7 -20 -13 -39 -13 -29 0 -34 -3 -34 -24 0 -21 5 -25 38 -29 l37 -4 -37 -1
c-33 -2 -38 -5 -38 -27 0 -22 4 -25 40 -25 22 0 40 -4 40 -10 0 -5 -22 -10
-50 -10 l-49 0 -4 75 -3 75 0 -77z"/>
<path d="M1332 1322 c-2 -75 0 -83 16 -80 10 2 18 14 20 31 3 22 8 27 31 27
34 0 51 17 51 50 0 30 -17 50 -39 49 -10 0 -7 -4 7 -10 19 -7 23 -15 20 -41
-3 -29 -7 -34 -38 -38 -29 -4 -36 -10 -38 -32 -7 -56 -21 -26 -25 50 l-3 77
-2 -83z"/>
<path d="M1464 1323 l1 -78 73 -2 c68 -1 72 0 78 23 9 34 51 33 64 -1 12 -30
40 -33 40 -4 l0 20 26 -20 c15 -12 37 -21 49 -21 23 0 65 38 65 59 0 17 -32
10 -37 -9 -4 -13 -3 -13 6 0 5 8 13 11 17 7 11 -11 -27 -47 -50 -47 -40 0 -66
28 -68 73 l-1 42 -6 -45 -6 -45 -19 63 c-11 34 -22 62 -26 62 -4 0 3 -29 16
-65 26 -72 29 -85 15 -85 -5 0 -12 11 -15 25 -5 20 -13 25 -36 25 -23 0 -33
-6 -40 -25 -11 -28 -28 -33 -36 -10 -4 9 -19 15 -40 15 l-33 0 -4 63 -3 62 -2
-67 -2 -68 35 0 c19 0 35 -4 35 -10 0 -5 -20 -10 -45 -10 l-44 0 -4 75 -3 75
0 -77z"/>
<path d="M1739 1383 c-13 -17 -13 -17 6 -3 11 8 22 16 24 17 2 2 0 3 -6 3 -6
0 -17 -8 -24 -17z"/>
<path d="M1874 1323 l1 -78 53 -3 c40 -2 54 1 58 12 5 14 8 14 27 1 28 -19 57
-19 85 1 40 27 18 78 -37 86 -14 1 -26 9 -29 16 -5 15 30 16 45 1 6 -6 19 -9
29 -6 16 4 16 5 -3 6 -12 0 -25 6 -28 11 -8 13 -42 13 -50 0 -10 -16 14 -40
39 -40 27 0 46 -18 46 -42 0 -19 -28 -38 -57 -38 -24 0 -60 26 -50 36 4 4 13
2 19 -4 7 -7 16 -12 21 -12 5 0 2 7 -7 15 -18 18 -46 20 -46 2 0 -9 -12 -11
-40 -9 -52 5 -56 32 -5 32 24 0 35 5 35 15 0 10 -11 15 -35 15 -24 0 -35 5
-35 15 0 10 11 15 35 15 27 0 35 4 34 18 0 10 -3 12 -6 5 -2 -7 -20 -13 -39
-13 -29 0 -34 -3 -34 -24 0 -21 5 -25 38 -29 l37 -4 -37 -1 c-33 -2 -38 -5
-38 -27 0 -22 4 -25 40 -25 22 0 40 -4 40 -10 0 -5 -22 -10 -50 -10 l-49 0 -4
75 -3 75 0 -77z"/>
<path d="M2005 1390 c-3 -6 1 -7 9 -4 18 7 21 14 7 14 -6 0 -13 -4 -16 -10z"/>
<path d="M710 1371 c-5 -11 -9 -35 -9 -53 1 -32 2 -32 8 7 4 22 10 46 14 53 5
6 6 12 3 12 -3 0 -10 -9 -16 -19z"/>
<path d="M829 1373 c39 -81 -28 -153 -99 -107 l-25 16 24 -21 c31 -28 66 -26
96 4 29 28 33 81 9 111 -15 18 -15 18 -5 -3z"/>
<path d="M480 1350 c0 -28 3 -31 28 -28 21 2 27 8 27 28 0 20 -6 26 -27 28
-25 3 -28 0 -28 -28z m50 0 c0 -13 -7 -20 -20 -20 -13 0 -20 7 -20 20 0 13 7
20 20 20 13 0 20 -7 20 -20z"/>
<path d="M742 1368 c-16 -16 -16 -70 0 -86 7 -7 21 -12 33 -12 30 0 45 19 44
55 -2 30 -2 30 -8 -5 -5 -31 -10 -35 -36 -35 -28 0 -30 2 -30 40 0 38 1 40 32
40 17 0 29 3 26 7 -7 12 -48 9 -61 -4z"/>
<path d="M890 1350 c0 -25 4 -30 24 -30 13 0 29 7 36 15 17 20 -3 45 -36 45
-20 0 -24 -5 -24 -30z m55 0 c0 -8 -10 -16 -22 -18 -18 -3 -23 2 -23 18 0 16
5 21 23 18 12 -2 22 -10 22 -18z"/>
<path d="M1360 1350 c0 -25 4 -30 24 -30 13 0 30 8 37 18 11 14 11 15 -1 5
-23 -21 -50 -16 -50 8 0 17 5 20 25 17 13 -3 22 -1 19 3 -3 5 -16 9 -30 9 -20
0 -24 -5 -24 -30z"/>
<path d="M1637 1358 c-11 -38 -8 -48 13 -48 11 0 20 4 20 10 0 5 -7 7 -15 4
-10 -4 -15 0 -15 11 0 9 5 13 10 10 12 -8 13 5 1 23 -6 10 -10 8 -14 -10z"/>
<path d="M1762 1368 c-7 -7 -12 -17 -12 -22 0 -6 5 -3 11 7 12 21 48 23 55 2
7 -16 44 -21 44 -5 0 5 -6 7 -13 4 -8 -3 -20 2 -27 11 -15 18 -41 20 -58 3z"/>
<path d="M1990 1359 c0 -21 32 -49 56 -48 14 1 13 3 -6 8 -14 4 -30 18 -37 31
-8 16 -13 19 -13 9z"/>
<path d="M1591 1309 c-6 -18 -11 -37 -10 -43 0 -6 7 7 15 28 8 22 12 41 10 43
-2 2 -9 -10 -15 -28z"/>
<path d="M1754 1290 c1 -9 12 -15 29 -16 24 -1 24 -1 3 3 -14 2 -27 10 -29 16
-2 7 -3 5 -3 -3z"/>
<path d="M2075 1301 c4 -8 2 -17 -6 -22 -9 -6 -10 -9 -2 -9 19 0 27 21 13 33
-10 9 -11 9 -5 -2z"/>
<path d="M1237 1244 c-13 -13 -7 -24 14 -24 11 0 19 5 17 12 -5 14 -22 21 -31
12z"/>
</g>
</svg>
